<?xml version="1.0" encoding="utf-8"?>
<!-- Generator: Adobe Illustrator 23.0.1, SVG Export Plug-In . SVG Version: 6.00 Build 0)  -->
<svg version="1.1" id="Livello_1" xmlns="http://www.w3.org/2000/svg" xmlns:xlink="http://www.w3.org/1999/xlink" x="0px" y="0px"
	 viewBox="0 0 18 19" style="enable-background:new 0 0 18 19;" xml:space="preserve">
<style type="text/css">
	.st0{display:none;}
	.st1{display:inline;}
	.st2{fill:#FFFFFF;}
</style>
<title>Shape</title>
<desc>Created with Sketch.</desc>
<g id="Design" class="st0">
	<g id="Werk-1" transform="translate(-31.000000, -477.000000)" class="st1">
		<g id="Group-11" transform="translate(31.000000, 395.000000)">
			<g id="Group-10">
				<path id="Shape" class="st2" d="M9,82.4c-5,0-9,4-9,9s4,9,9,9s9-4,9-9S14,82.4,9,82.4z M14.9,86.7c1,1.2,1.6,2.8,1.7,4.5
					c-1.9-0.4-3.6-0.3-5.1,0c-0.3-0.6-0.6-1.2-0.8-1.8C12.3,88.6,13.7,87.7,14.9,86.7z M13.8,85.6c-1.2,1.1-2.5,1.8-3.9,2.4
					c-1-1.8-2-3.2-2.6-4c0.5-0.1,1-0.2,1.6-0.2C10.8,83.9,12.5,84.5,13.8,85.6z M6,84.5c0.4,0.6,1.5,2,2.6,4.1
					c-2.8,0.9-5.6,1.1-6.9,1.1C2.2,87.3,3.8,85.4,6,84.5z M1.5,91.1L1.5,91.1c1,0,2.6-0.1,4.6-0.4c1.1-0.2,2.2-0.5,3.2-0.8
					c0.3,0.5,0.5,1.1,0.8,1.6c-1.4,0.5-2.6,1.1-3.5,1.8c-1.6,1.1-2.7,2.3-3.3,3c-1.1-1.3-1.8-3-1.8-4.9C1.4,91.3,1.4,91.2,1.5,91.1z
					 M4.3,97.3c0.5-0.7,1.6-1.8,3.1-2.9c1-0.7,2.1-1.2,3.2-1.6c0.6,1.7,1.2,3.5,1.5,5.5c-1,0.4-2,0.7-3.1,0.7
					C7.2,99,5.6,98.3,4.3,97.3z M13.4,97.5c-0.3-1.8-0.8-3.5-1.4-5c1.4-0.2,2.9-0.2,4.4,0.1C16.1,94.6,15,96.4,13.4,97.5z"/>
			</g>
		</g>
	</g>
</g>
<g class="st0">
	<g class="st1">
		<path class="st2" d="M13.1,5.6H5.2c-0.7,0-1.3,0.6-1.3,1.3v5.4c0,0.7,0.6,1.3,1.3,1.3h7.9c0.7,0,1.3-0.6,1.3-1.3V6.9
			C14.4,6.2,13.8,5.6,13.1,5.6z M13.8,12.3c0,0.4-0.3,0.7-0.7,0.7H5.2c-0.4,0-0.7-0.3-0.7-0.7V6.9c0-0.4,0.3-0.7,0.7-0.7h5h2.9
			c0.4,0,0.7,0.3,0.7,0.7V12.3L13.8,12.3z"/>
		<path class="st2" d="M10.5,9.5l2.6-2.3c0.1-0.1,0.1-0.3,0-0.4s-0.3-0.1-0.4,0L9.1,10L8.5,9.4l0,0l0,0L5.6,6.8
			c-0.1-0.1-0.3-0.1-0.4,0C5.1,7,5.1,7.1,5.2,7.3l2.6,2.3L5.2,12c-0.1,0.1-0.1,0.3,0,0.4c0.1,0.1,0.1,0.1,0.2,0.1s0.1,0,0.2-0.1
			L8.2,10L9,10.6c0.1,0,0.1,0.1,0.2,0.1s0.1,0,0.2-0.1l0.7-0.7l2.6,2.5c0.1,0.1,0.1,0.1,0.2,0.1c0.1,0,0.2,0,0.2-0.1
			c0.1-0.1,0.1-0.3,0-0.4L10.5,9.5z"/>
	</g>
</g>
<g>
	<path class="st2" d="M12.7,12.3V5.9l-0.2,0c-1,0.1-1.9,0.3-2.8,0.7L9.2,6.8v6.4L9.5,13c0.9-0.4,1.9-0.6,2.9-0.7L12.7,12.3z"/>
	<path class="st2" d="M13.5,6.8H13v5.6c0,0.1-0.1,0.2-0.1,0.2l-0.4,0c-0.1,0-0.2,0-0.4,0c0,0-0.1,0-0.1,0c-0.1,0-0.2,0-0.2,0
		c0,0-0.1,0-0.1,0c-0.1,0-0.1,0-0.2,0c0,0-0.1,0-0.1,0c-0.1,0-0.1,0-0.2,0c0,0-0.1,0-0.1,0c-0.1,0-0.1,0-0.2,0.1c0,0-0.1,0-0.1,0
		c-0.1,0-0.1,0-0.2,0.1c0,0-0.1,0-0.1,0c-0.1,0-0.1,0-0.2,0.1c0,0-0.1,0-0.1,0.1c0,0,0,0-0.1,0h3.7V6.8z"/>
	<path class="st2" d="M5.6,5.9l-0.2,0v6.4l0.3,0c1,0.1,2,0.3,2.9,0.7l0.3,0.1V6.8L8.4,6.6C7.5,6.2,6.5,6,5.6,5.9z"/>
	<path class="st2" d="M4.5,6.8v6.4h3.7c0,0,0,0-0.1,0c0,0-0.1,0-0.1-0.1c-0.1,0-0.1,0-0.2-0.1c0,0-0.1,0-0.1,0c-0.1,0-0.1,0-0.2-0.1
		c0,0-0.1,0-0.1,0c-0.1,0-0.1,0-0.2-0.1c0,0-0.1,0-0.1,0c-0.1,0-0.1,0-0.2,0c0,0-0.1,0-0.1,0c-0.1,0-0.1,0-0.2,0c0,0-0.1,0-0.1,0
		c-0.1,0-0.2,0-0.2,0c0,0-0.1,0-0.1,0c-0.1,0-0.2,0-0.4,0l-0.4,0c-0.1,0-0.1-0.1-0.1-0.2V6.8H4.5z"/>
</g>
</svg>
