<?xml version="1.0" encoding="utf-8"?>
<!-- Generator: Adobe Illustrator 25.1.0, SVG Export Plug-In . SVG Version: 6.00 Build 0)  -->
<svg version="1.1" id="Livello_1" xmlns="http://www.w3.org/2000/svg" xmlns:xlink="http://www.w3.org/1999/xlink" x="0px" y="0px"
	 viewBox="0 0 24 24" style="enable-background:new 0 0 24 24;" xml:space="preserve">
<style type="text/css">
	.st0{fill:#FFFFFF;}
</style>
<desc>Created with Sketch.</desc>
<g id="_xD83D__xDD0D_-Product-Icons">
	<g id="ic_fluent_movies_and_tv_24_regular">
		<path id="_xD83C__xDFA8_-Color" class="st0" d="M16.6,7.1L16.6,7.1l0.4,1.3c0.1,0.2,0,0.5-0.3,0.5l-0.1,0l-6.5,1.9l6.8,0
			c0.2,0,0.4,0.2,0.5,0.4l0,0.1v5.2c0,0.9-0.7,1.6-1.6,1.7l-0.1,0H8.1c-0.9,0-1.6-0.7-1.7-1.6l0-0.1l0-5.1l-0.3-1.1
			c-0.2-0.9,0.2-1.7,1.1-2l0.1,0L14.5,6C15.4,5.8,16.3,6.2,16.6,7.1z M8.4,8.7L7.5,9C7.1,9.1,6.9,9.5,6.9,9.8l0,0.1l0.2,0.7l0.2-0.1
			L8.4,8.7z M11.3,7.9L9.6,8.4l-1,1.9l1.7-0.5L11.3,7.9z M14.2,7.1l-1.7,0.5l-1,1.9l1.7-0.5L14.2,7.1z M15.3,6.9l-0.9,1.7l1.6-0.4
			l-0.2-0.7C15.7,7.2,15.5,7,15.3,6.9z"/>
	</g>
</g>
</svg>
