<?xml version="1.0" encoding="utf-8"?>
<!-- Generator: Adobe Illustrator 23.0.1, SVG Export Plug-In . SVG Version: 6.00 Build 0)  -->
<svg version="1.1" id="Livello_1" xmlns="http://www.w3.org/2000/svg" xmlns:xlink="http://www.w3.org/1999/xlink" x="0px" y="0px"
	 viewBox="0 0 209 209" style="enable-background:new 0 0 209 209;" xml:space="preserve">
<style type="text/css">
	.st0{fill:#FFFFFF;}
</style>
<g>
	<path class="st0" d="M38.4,41.3c-11.8,0-23.6,0-35.4,0c-3.3,0-3.3,0-3.3,3.2c0,12.9,0,25.8,0,38.6c0,40.6,0,81.2,0,121.7
		c0,3.3,0,3.3,3.3,3.3c18.1,0,36.3,0,54.4,0.1c2.3,0,3.9-0.7,5.5-2.3c12.5-12.6,25.2-25,37.7-37.6c1.3-1.3,2.7-1.8,4.5-1.8
		c20.2,0.1,40.4,0.1,60.6,0c1,0,2.4-0.4,3.1-1.1c13.1-12.9,26.2-25.9,39.2-39c0.8-0.8,1.3-2.1,1.3-3.2c0.1-40.3,0.1-80.7,0.1-121
		c0-0.6-0.1-1.1-0.3-2.3c-1.1,1-1.8,1.7-2.5,2.3c-12.5,12.4-25,24.9-37.6,37.3c-0.9,0.9-2.4,1.6-3.6,1.6c-19.4,0.1-38.7,0.1-58.1,0
		c-2.3,0-3.9,0.7-5.4,2.3C89.3,56.2,76.7,68.7,64.1,81.2c-0.9,0.9-2.4,1.5-3.6,1.5c-19.2,0.1-38.4,0.1-57.6,0.1
		c-0.6,0-1.2-0.2-1.8-0.3c13.4-13.6,26.6-27.1,40.2-41C40,41.4,39.2,41.3,38.4,41.3z"/>
</g>
</svg>
